PathFileType	4	(X/Y/Z)	E:\Qualisys_Data\Carbon_Farble_Plate\Data\Amateur_Runner\S14\T3\S14T3V22_c3d.trc
DataRate	CameraRate	NumFrames	NumMarkers	Units	OrigDataRate	OrigDataStartFrame	OrigNumFrames
200.000000	200.000000	5	39	mm	200.000000	113	302
Frame#	Time	LSHO			RSHO			LICST			RICST			LASIS			LHEEL			RASIS			LTROC			RTROC			SACR			LTH1			LSK4			LTH2			LTH3			RHM5			LSK2			LTH4			RTH1			LTOE			RTH2			RTH3			RTH4			LLEP			RLEP			LSK1			LSK3			RSK1			LHM5			RSK2			LFT1			RSK3			RSK4			LLME			RLME			RTOE			RHEEL			RFT1			RFT2			LFT2			
		X1	Y1	Z1	X2	Y2	Z2	X3	Y3	Z3	X4	Y4	Z4	X5	Y5	Z5	X6	Y6	Z6	X7	Y7	Z7	X8	Y8	Z8	X9	Y9	Z9	X10	Y10	Z10	X11	Y11	Z11	X12	Y12	Z12	X13	Y13	Z13	X14	Y14	Z14	X15	Y15	Z15	X16	Y16	Z16	X17	Y17	Z17	X18	Y18	Z18	X19	Y19	Z19	X20	Y20	Z20	X21	Y21	Z21	X22	Y22	Z22	X23	Y23	Z23	X24	Y24	Z24	X25	Y25	Z25	X26	Y26	Z26	X27	Y27	Z27	X28	Y28	Z28	X29	Y29	Z29	X30	Y30	Z30	X31	Y31	Z31	X32	Y32	Z32	X33	Y33	Z33	X34	Y34	Z34	X35	Y35	Z35	X36	Y36	Z36	X37	Y37	Z37	X38	Y38	Z38	X39	Y39	Z39	

114	0.565	-671.6857299804688	1382.831665039062	-546.2145385742188	-674.4236450195312	1399.851806640625	-236.2015533447266	-735.3331298828125	950.8385009765624	-501.9430541992188	-695.7922973632812	951.5103759765624	-222.4971160888672	-689.4241943359375	901.5521850585938	-482.1348876953125	-1086.338745117188	122.9698028564453	-340.8103942871094	-671.4273681640625	910.1121215820312	-244.4924926757812	-831.563232421875	838.9743041992188	-507.4447631835938	-804.394775390625	828.9332885742188	-184.341552734375	-853.8575439453125	958.1436767578124	-358.2224731445312	-759.9735107421875	603.7891235351562	-496.2341918945312	-941.0178833007812	294.8508911132812	-428.982666015625	-834.9019165039062	606.0009765625	-476.8916625976562	-751.2440795898438	509.224365234375	-464.4244995117188	-920.089599609375	206.0714569091797	-186.9876861572266	-884.3815307617188	372.4974975585938	-453.1314086914062	-829.4409790039062	511.3385009765625	-449.488037109375	-586.31201171875	674.69189453125	-180.2626037597656	-835.2855834960938	65.58128356933594	-359.2413024902344	-657.8970336914062	642.2732543945312	-167.9075469970703	-542.6255493164062	585.1242065429688	-199.3639373779297	-617.7908325195312	549.3115234375	-180.4106140136719	-800.1639404296875	433.1922912597656	-454.53759765625	-573.9273681640625	500.84814453125	-180.8526916503906	-815.8421020507812	328.2373352050781	-440.3170776367188	-875.531982421875	248.362548828125	-418.3775024414062	-646.9974975585938	420.6403198242188	-187.2242736816406	-903.3876342773438	65.98883056640625	-423.0377197265625	-687.8291625976562	495.3477783203125	-180.3413391113281	-1081.439208984375	91.05982208251952	-314.3406372070312	-741.5984497070312	378.7514343261719	-200.8671569824219	-772.3186645507812	451.7942810058594	-193.9888610839844	-1013.755187988281	135.3921051025391	-398.9375915527344	-912.5494995117188	352.0063171386719	-214.9009704589844	-884.07861328125	145.2213439941406	-254.2271270751953	-965.1573486328124	392.1286010742188	-268.76416015625	-985.7833251953124	369.6144714355469	-296.6860046386719	-984.573486328125	385.742919921875	-244.7268676757812	-1090.850219726562	92.7349090576172	-367.4363708496094
115	0.57	-648.9518432617188	1386.990600585938	-545.24462890625	-657.3637084960938	1403.787841796875	-236.4105377197266	-714.1881103515625	953.4900512695312	-502.3645629882812	-675.0621337890625	954.6741943359376	-223.7293548583984	-668.691162109375	903.8387451171876	-482.49658203125	-1083.374755859375	128.9167633056641	-342.0404357910156	-651.696044921875	913.9252319335938	-244.8223724365234	-810.981201171875	842.0711059570312	-507.9413757324219	-783.4871215820312	833.1785888671875	-184.1747131347656	-833.4029541015625	961.336181640625	-359.4107055664062	-747.5537719726562	606.5460815429688	-496.0020141601562	-936.4688720703124	300.2227478027344	-429.3258056640625	-822.3944702148438	610.9982299804688	-477.1712036132812	-742.4805908203125	511.3370971679688	-464.5628967285156	-879.3273315429688	198.9202575683594	-186.2187957763672	-878.9459228515625	377.1089172363281	-453.6894836425781	-820.1790161132812	516.1661376953125	-449.6825256347656	-563.2936401367188	681.5523681640625	-181.2825622558594	-834.5623779296875	64.9399642944336	-359.0806579589844	-634.139892578125	647.8131103515625	-168.9087066650391	-517.6802368164062	593.3125	-200.9105072021484	-591.5601806640625	555.918701171875	-181.6943969726562	-794.1787719726562	437.2027893066406	-454.8506774902344	-546.548828125	507.8957824707031	-182.397705078125	-810.8253173828125	332.2238159179688	-441.1609497070312	-871.7409057617188	252.9899597167969	-419.2119750976562	-617.3653564453125	424.5957946777344	-188.2431182861328	-902.403076171875	66.02755737304688	-423.1201782226562	-661.055908203125	498.3441162109375	-182.4956817626953	-1079.287231445312	97.28453826904295	-315.2574157714844	-710.018798828125	379.39501953125	-201.0800476074219	-743.948974609375	450.9021911621094	-195.5884246826172	-1010.765808105469	139.9454803466797	-399.3930969238281	-879.7897338867188	344.6937255859375	-215.1295623779297	-839.80712890625	139.4298400878906	-253.5006561279297	-932.5673217773438	381.0221557617188	-268.105224609375	-953.956298828125	357.6977844238281	-296.960693359375	-952.2017822265624	373.6245422363281	-245.0540924072266	-1088.031494140625	98.98716735839844	-368.1153259277344
116	0.575	-626.4085083007812	1391.532104492188	-544.4330444335938	-639.788818359375	1407.821655273438	-236.3388214111328	-692.4412841796875	956.1947021484376	-503.486572265625	-654.5660400390625	958.2597045898438	-224.4989776611328	-647.6187133789062	906.2296752929688	-482.7255249023438	-1079.848388671875	136.5370483398438	-343.4616088867188	-631.6866455078125	917.7931518554688	-245.5255432128906	-789.8071899414062	845.406982421875	-508.7894592285156	-762.556396484375	837.645751953125	-183.9833984375	-812.7056274414062	964.0179443359376	-360.9085998535156	-734.7141723632812	609.4298095703125	-496.0892639160156	-931.468017578125	306.3880920410156	-429.9776916503906	-809.5014038085938	616.6782836914062	-477.540771484375	-732.3757934570312	514.3843383789062	-464.6138000488281	-839.0382690429688	191.7174377441406	-185.4526519775391	-873.0288696289062	382.8488464355469	-454.0286254882812	-810.3853149414062	521.8604125976562	-450.374755859375	-540.2550659179688	688.5807495117188	-182.3748016357422	-831.52392578125	65.41720581054688	-359.4231567382812	-609.9542846679688	653.9202270507812	-169.7832641601562	-492.857666015625	601.4544067382812	-202.39599609375	-566.17138671875	562.360107421875	-183.2861633300781	-786.7891235351562	442.0090026855469	-455.1942749023438	-519.0404052734375	514.4121704101562	-185.0851135253906	-804.9669799804688	336.6637878417969	-441.9639282226562	-867.0197143554688	258.191650390625	-420.78662109375	-587.7623291015625	429.2267761230469	-189.8109283447266	-901.4485473632812	66.41634368896484	-423.4017333984375	-635.0073852539062	501.1457214355469	-184.8236541748047	-1075.978271484375	104.8819351196289	-316.5636596679688	-678.5609130859375	380.0389099121094	-201.8137664794922	-715.0157470703125	449.418701171875	-196.8864898681641	-1006.191528320312	145.2763824462891	-400.553955078125	-846.6686401367188	337.0378723144531	-214.9724731445312	-795.7709350585938	133.9480133056641	-252.3473663330078	-901.181396484375	370.6444702148438	-268.256591796875	-922.7974853515624	345.6726684570312	-297.4572143554688	-922.1769409179688	362.1088562011719	-246.0304870605469	-1083.67822265625	106.9351654052734	-370.7557678222656
117	0.58	-603.5242309570312	1396.251342773438	-543.74951171875	-622.1521606445312	1411.823608398438	-236.7327728271484	-670.87255859375	959.0947875976562	-503.49267578125	-633.2786254882812	963.8101806640624	-225.4959106445312	-626.1245727539062	908.8461303710938	-482.7586364746094	-1075.275146484375	143.6430511474609	-345.095703125	-610.9571533203125	921.9273071289062	-246.1651458740234	-769.0620727539062	848.9827270507812	-510.3770751953125	-741.4674682617188	842.5259399414062	-183.6649017333984	-792.3040161132812	967.1961059570312	-362.0804748535156	-721.03564453125	613.3599853515625	-496.4622192382812	-925.3394775390624	312.8432922363281	-431.2464599609375	-795.472900390625	622.4666748046875	-478.2678833007812	-722.2489013671875	517.911376953125	-464.7882690429688	-797.1478881835938	185.0913391113281	-184.5445098876953	-866.0816040039062	388.2532348632812	-454.8449401855469	-799.4597778320312	527.470947265625	-450.9718322753906	-517.1495971679688	695.3222045898438	-183.6081848144531	-833.1739501953125	64.69783782958984	-359.8280029296875	-586.0199584960938	659.6508178710938	-170.9543609619141	-468.4750366210938	609.0675048828125	-203.8423461914062	-540.9956665039062	569.126953125	-184.5176239013672	-778.9074096679688	447.2781372070312	-455.9443969726562	-492.6602478027344	521.9976196289062	-186.8842163085938	-799.1741943359375	341.784423828125	-442.9971313476562	-862.1763305664062	263.7894287109375	-422.0916442871094	-558.8881225585938	433.6088256835938	-190.6736450195312	-900.1465454101562	66.10128021240234	-423.2077331542969	-608.963623046875	503.1395263671875	-187.0644226074219	-1072.39697265625	112.6776123046875	-317.3656616210938	-647.1043090820312	379.8381042480469	-202.6051788330078	-686.95947265625	447.9720153808594	-197.9013671875	-1002.710327148438	151.0816650390625	-400.8740234375	-813.6778564453125	328.654541015625	-215.5028381347656	-751.3197631835938	129.0869140625	-250.8365936279297	-870.046630859375	359.5573120117188	-269.278076171875	-888.0879516601562	332.5089416503906	-297.0997009277344	-889.9873046875	349.9841613769531	-246.3877105712891	-1079.932983398438	114.2515411376953	-372.2503662109375
118	0.585	-581.283935546875	1401.23095703125	-542.7577514648438	-604.3501586914062	1416.1826171875	-236.9088439941406	-648.7865600585938	961.8480834960938	-503.798583984375	-614.3501586914062	967.1952514648438	-225.3596801757812	-604.6837768554688	910.822265625	-482.723876953125	-1070.086303710938	151.5587768554688	-346.8130187988281	-589.75048828125	926.2880249023438	-246.1856842041016	-748.1507568359375	852.364501953125	-511.6405639648438	-720.0477294921875	847.3347778320312	-183.4179382324219	-771.8087158203125	970.6586303710938	-363.3126525878906	-706.932861328125	616.8734130859375	-496.804443359375	-919.5921020507812	319.8475341796875	-432.5270080566406	-781.6965942382812	628.2841796875	-478.5780334472656	-710.91943359375	522.0007934570312	-464.8108520507812	-754.4725952148438	178.8986511230469	-183.8904418945312	-858.8338623046875	394.7733764648438	-455.8270874023438	-788.6825561523438	533.6853637695312	-451.7260437011719	-493.8323974609375	702.3621826171875	-184.8459930419922	-831.8270874023438	64.21154022216797	-360.1686706542969	-562.4683837890625	665.24169921875	-172.1116485595703	-444.4411315917969	616.5739135742188	-205.4003601074219	-516.0126953125	575.4893798828125	-185.5955200195312	-770.8876953125	452.4044494628906	-455.8247985839844	-466.7068786621094	528.7587890625	-189.184326171875	-792.1844482421875	347.4649353027344	-444.1012268066406	-856.24755859375	269.6327819824219	-423.8786926269531	-530.15380859375	437.6546630859375	-191.6841735839844	-898.4957275390625	67.17512512207031	-423.6726989746094	-583.9035034179688	505.1160583496094	-188.5084381103516	-1067.857543945312	120.7845458984375	-318.7328491210938	-615.8433227539062	379.7018127441406	-203.3464508056641	-658.8922119140625	445.9556884765625	-199.5276336669922	-997.3982543945312	157.8910064697266	-402.5835876464844	-779.969970703125	320.4599304199219	-216.1707000732422	-706.502197265625	124.8854827880859	-249.8026428222656	-837.5294799804688	348.2486572265625	-269.622802734375	-855.8759155273438	320.5210876464844	-297.6092834472656	-857.4942626953125	337.3972778320312	-247.1973419189453	-1075.460083007812	122.0034637451172	-373.2652587890625
